<?xml version="1.0" encoding="UTF-8"?>
<!DOCTYPE svg PUBLIC "-//W3C//DTD SVG 1.1//EN" "http://www.w3.org/Graphics/SVG/1.1/DTD/svg11.dtd">
<svg xmlns="http://www.w3.org/2000/svg" version="1.1" width="200px" height="200px" style="shape-rendering:geometricPrecision; text-rendering:geometricPrecision; image-rendering:optimizeQuality; fill-rule:evenodd; clip-rule:evenodd" xmlns:xlink="http://www.w3.org/1999/xlink">
<g><path style="opacity:1" fill="#f8f8f8" d="M 62.5,47.5 C 67.1785,47.3342 71.8452,47.5008 76.5,48C 84.2143,50.463 92.0476,52.2963 100,53.5C 108.016,52.538 115.849,50.7047 123.5,48C 135.514,44.8826 144.347,48.7159 150,59.5C 153.529,71.6214 157.362,83.6214 161.5,95.5C 172.12,97.3172 182.12,100.817 191.5,106C 198.542,111.378 200.375,118.211 197,126.5C 189.529,134.154 180.695,139.654 170.5,143C 139.437,152.031 107.77,155.031 75.5,152C 53.3327,150.542 32.3327,144.875 12.5,135C 9.03543,132.537 5.86876,129.704 3,126.5C -0.914083,117.02 1.58592,109.853 10.5,105C 13.1667,103.667 15.8333,102.333 18.5,101C 25.6143,98.9753 32.6143,96.8086 39.5,94.5C 43.0992,82.8687 46.5992,71.202 50,59.5C 52.769,53.8947 56.9356,49.8947 62.5,47.5 Z M 64.5,59.5 C 67.8499,59.335 71.1832,59.5017 74.5,60C 82.7927,62.9866 91.2927,65.1533 100,66.5C 108.7,65.1562 117.2,62.9895 125.5,60C 128.833,59.3333 132.167,59.3333 135.5,60C 137.049,61.214 138.215,62.714 139,64.5C 143.273,79.431 147.773,94.2643 152.5,109C 117.862,116.104 83.1951,116.271 48.5,109.5C 52.3528,94.4378 56.5194,79.4378 61,64.5C 61.9973,62.6769 63.1639,61.0103 64.5,59.5 Z M 34.5,109.5 C 32.6901,113.734 33.6901,117.234 37.5,120C 78.0816,128.285 118.748,128.618 159.5,121C 166.04,119.05 167.706,115.05 164.5,109C 170.302,109.871 175.969,111.538 181.5,114C 187.008,116.155 187.675,119.155 183.5,123C 173.491,128.448 162.824,132.115 151.5,134C 114.032,140.517 76.6986,139.85 39.5,132C 31.5084,129.838 23.8417,126.838 16.5,123C 13.141,120.966 12.8076,118.632 15.5,116C 21.4683,112.678 27.8016,110.512 34.5,109.5 Z"/></g>
</svg>
