<?xml version="1.0" encoding="UTF-8"?>
<!DOCTYPE svg PUBLIC "-//W3C//DTD SVG 1.1//EN" "http://www.w3.org/Graphics/SVG/1.1/DTD/svg11.dtd">
<svg xmlns="http://www.w3.org/2000/svg" version="1.1" width="200px" height="200px" style="shape-rendering:geometricPrecision; text-rendering:geometricPrecision; image-rendering:optimizeQuality; fill-rule:evenodd; clip-rule:evenodd" xmlns:xlink="http://www.w3.org/1999/xlink">
<g><path style="opacity:1" fill="#f8f8f8" d="M 90.5,1.5 C 97.6154,1.07532 104.615,1.57532 111.5,3C 113.617,4.73092 115.117,6.89759 116,9.5C 116.499,13.4862 116.666,17.4862 116.5,21.5C 144.598,27.7989 164.432,44.1323 176,70.5C 177.684,74.7155 178.851,79.0488 179.5,83.5C 184.742,83.0227 189.742,83.8561 194.5,86C 196.049,87.214 197.215,88.714 198,90.5C 198.667,96.8333 198.667,103.167 198,109.5C 196.437,112.728 193.937,114.895 190.5,116C 186.848,116.499 183.182,116.665 179.5,116.5C 171.549,149.953 150.882,171.119 117.5,180C 116.707,183.411 116.207,186.911 116,190.5C 113.031,197.651 107.698,200.318 100,198.5C 86.6823,199.274 81.1823,192.941 83.5,179.5C 49.507,171.507 28.507,150.507 20.5,116.5C 7.05934,118.818 0.726006,113.318 1.5,100C -0.38638,91.7616 2.61362,86.4283 10.5,84C 13.8168,83.5017 17.1501,83.335 20.5,83.5C 28.9092,50.0911 49.9092,29.4245 83.5,21.5C 81.9133,13.2501 84.2467,6.58341 90.5,1.5 Z M 95.5,12.5 C 98.5,12.5 101.5,12.5 104.5,12.5C 104.018,39.5888 104.518,66.5888 106,93.5C 106.75,94.1258 107.584,94.6258 108.5,95C 134.831,95.5 161.165,95.6666 187.5,95.5C 187.5,98.5 187.5,101.5 187.5,104.5C 161.165,104.333 134.831,104.5 108.5,105C 107.333,106.167 106.167,107.333 105,108.5C 104.5,134.831 104.333,161.165 104.5,187.5C 101.5,187.5 98.5,187.5 95.5,187.5C 95.6666,161.165 95.5,134.831 95,108.5C 93.8333,107.333 92.6667,106.167 91.5,105C 65.1688,104.5 38.8354,104.333 12.5,104.5C 12.5,101.5 12.5,98.5 12.5,95.5C 39.5888,95.9824 66.5888,95.4824 93.5,94C 94.1258,93.2496 94.6258,92.4162 95,91.5C 95.5,65.1688 95.6666,38.8354 95.5,12.5 Z M 82.5,32.5 C 83.4966,49.3251 83.8299,66.3251 83.5,83.5C 66.1635,83.6666 48.8301,83.4999 31.5,83C 39.7784,57.221 56.7784,40.3876 82.5,32.5 Z M 116.5,32.5 C 142.846,40.0119 160.179,56.8452 168.5,83C 151.17,83.4999 133.837,83.6666 116.5,83.5C 116.5,66.5 116.5,49.5 116.5,32.5 Z M 31.5,117.5 C 48.6586,116.503 65.992,116.17 83.5,116.5C 83.8328,133.846 83.4995,151.179 82.5,168.5C 56.4488,160.449 39.4488,143.449 31.5,117.5 Z M 116.5,116.5 C 133.837,116.333 151.17,116.5 168.5,117C 160.728,143.272 143.728,160.439 117.5,168.5C 116.5,151.179 116.167,133.846 116.5,116.5 Z"/></g>
</svg>
