<?xml version="1.0" encoding="UTF-8"?>
<!DOCTYPE svg PUBLIC "-//W3C//DTD SVG 1.1//EN" "http://www.w3.org/Graphics/SVG/1.1/DTD/svg11.dtd">
<svg xmlns="http://www.w3.org/2000/svg" version="1.1" width="200px" height="200px" style="shape-rendering:geometricPrecision; text-rendering:geometricPrecision; image-rendering:optimizeQuality; fill-rule:evenodd; clip-rule:evenodd" xmlns:xlink="http://www.w3.org/1999/xlink">
<g><path style="opacity:1" fill="#f4f4f4" d="M 173.5,74.5 C 173.259,76.8984 173.926,78.8984 175.5,80.5C 176.667,85.2059 177.834,89.8725 179,94.5C 186.173,92.6638 193.006,93.3305 199.5,96.5C 199.5,98.8333 199.5,101.167 199.5,103.5C 198.395,104.6 197.062,105.267 195.5,105.5C 189.167,105.5 182.833,105.5 176.5,105.5C 176.5,108.5 176.5,111.5 176.5,114.5C 170.56,141.607 154.894,160.774 129.5,172C 122.053,174.789 114.386,176.622 106.5,177.5C 106.666,183.509 106.499,189.509 106,195.5C 102.333,199.5 98.6667,199.5 95,195.5C 94.5005,189.509 94.3338,183.509 94.5,177.5C 64.1093,173.59 42.276,157.923 29,130.5C 25.6139,122.845 23.7806,114.845 23.5,106.5C 17.4908,106.666 11.4908,106.499 5.5,106C 0.181613,102.049 0.181613,98.049 5.5,94C 11.4908,93.5005 17.4908,93.3338 23.5,93.5C 27.5958,61.4904 44.5958,39.3237 74.5,27C 80.6959,25.0275 87.0293,23.6941 93.5,23C 94.3117,16.9149 94.8117,10.7482 95,4.5C 98.6667,0.5 102.333,0.5 106,4.5C 106.5,10.8246 106.666,17.1579 106.5,23.5C 130.687,25.1761 149.853,35.8427 164,55.5C 168.232,61.2977 171.399,67.631 173.5,74.5 Z M 91.5,35.5 C 92.5,35.5 93.5,35.5 94.5,35.5C 94.5,54.8333 94.5,74.1667 94.5,93.5C 74.822,93.833 55.1554,93.4996 35.5,92.5C 41.4733,60.8611 60.14,41.8611 91.5,35.5 Z M 114.5,36.5 C 143.805,44.4721 160.805,63.4721 165.5,93.5C 145.833,93.5 126.167,93.5 106.5,93.5C 106.5,74.1667 106.5,54.8333 106.5,35.5C 109.127,36.0916 111.794,36.4249 114.5,36.5 Z M 94.5,106.5 C 94.5,125.833 94.5,145.167 94.5,164.5C 61.4381,159.439 41.7715,140.439 35.5,107.5C 54.9929,106.503 74.6596,106.17 94.5,106.5 Z M 106.5,106.5 C 126.528,105.846 146.195,106.512 165.5,108.5C 158.844,140.821 139.178,159.488 106.5,164.5C 106.5,145.167 106.5,125.833 106.5,106.5 Z"/></g>
<g><path style="opacity:1" fill="#d7d7d7" d="M 114.5,36.5 C 111.794,36.4249 109.127,36.0916 106.5,35.5C 106.5,54.8333 106.5,74.1667 106.5,93.5C 126.167,93.5 145.833,93.5 165.5,93.5C 145.674,94.4971 125.674,94.8305 105.5,94.5C 105.5,74.5 105.5,54.5 105.5,34.5C 108.781,34.4203 111.781,35.087 114.5,36.5 Z"/></g>
<g><path style="opacity:1" fill="#c9c9ca" d="M 173.5,74.5 C 174.738,76.2143 175.405,78.2143 175.5,80.5C 173.926,78.8984 173.259,76.8984 173.5,74.5 Z"/></g>
<g><path style="opacity:1" fill="#cbcbcb" d="M 94.5,106.5 C 74.6596,106.17 54.9929,106.503 35.5,107.5C 34.9569,107.44 34.6236,107.107 34.5,106.5C 54.6627,105.172 74.6627,105.172 94.5,106.5 Z"/></g>
<g><path style="opacity:1" fill="#cccccc" d="M 106.5,106.5 C 126.326,105.503 146.326,105.17 166.5,105.5C 166.737,106.791 166.404,107.791 165.5,108.5C 146.195,106.512 126.528,105.846 106.5,106.5 Z"/></g>
<g><path style="opacity:1" fill="#d8d8d8" d="M 195.5,105.5 C 189.69,106.49 183.69,106.823 177.5,106.5C 177.806,109.385 177.473,112.052 176.5,114.5C 176.5,111.5 176.5,108.5 176.5,105.5C 182.833,105.5 189.167,105.5 195.5,105.5 Z"/></g>
</svg>
