<?xml version="1.0" encoding="UTF-8"?>
<!DOCTYPE svg PUBLIC "-//W3C//DTD SVG 1.1//EN" "http://www.w3.org/Graphics/SVG/1.1/DTD/svg11.dtd">
<svg xmlns="http://www.w3.org/2000/svg" version="1.1" width="200px" height="200px" style="shape-rendering:geometricPrecision; text-rendering:geometricPrecision; image-rendering:optimizeQuality; fill-rule:evenodd; clip-rule:evenodd" xmlns:xlink="http://www.w3.org/1999/xlink">
<g><path style="opacity:1" fill="#f7f7f7" d="M 85.5,3.5 C 132.557,-0.202653 166.724,18.7973 188,60.5C 204.198,103.184 196.032,140.35 163.5,172C 136.387,194.442 105.72,201.108 71.5,192C 34.3698,178.528 11.8698,152.362 4,113.5C 0.455204,62.7683 21.9552,27.6017 68.5,8C 74.2526,6.31369 79.9192,4.81369 85.5,3.5 Z M 93.5,17.5 C 137.063,17.5825 165.563,38.2492 179,79.5C 186.474,123.051 170.641,154.884 131.5,175C 92.2228,188.475 59.3895,179.308 33,147.5C 11.5735,113.478 12.5735,80.145 36,47.5C 51.2993,29.9349 70.4659,19.9349 93.5,17.5 Z"/></g>
<g><path style="opacity:1" fill="#f9f9f9" d="M 46.5,89.5 C 81.8349,89.3333 117.168,89.5 152.5,90C 158.542,93.7481 160.042,98.9148 157,105.5C 155.786,107.049 154.286,108.215 152.5,109C 117.167,109.667 81.8333,109.667 46.5,109C 40.4578,105.252 38.9578,100.085 42,93.5C 43.3968,91.9297 44.8968,90.5964 46.5,89.5 Z"/></g>
</svg>
