<?xml version="1.0" encoding="UTF-8"?>
<!DOCTYPE svg PUBLIC "-//W3C//DTD SVG 1.1//EN" "http://www.w3.org/Graphics/SVG/1.1/DTD/svg11.dtd">
<svg xmlns="http://www.w3.org/2000/svg" version="1.1" width="200px" height="200px" style="shape-rendering:geometricPrecision; text-rendering:geometricPrecision; image-rendering:optimizeQuality; fill-rule:evenodd; clip-rule:evenodd" xmlns:xlink="http://www.w3.org/1999/xlink">
<g><path style="opacity:1" fill="#f8f8f8" d="M 34.5,1.5 C 78.1679,1.33334 121.835,1.50001 165.5,2C 171.36,3.85948 175.193,7.69281 177,13.5C 177.667,71.1667 177.667,128.833 177,186.5C 174.833,191.333 171.333,194.833 166.5,197C 122.5,197.667 78.5,197.667 34.5,197C 28.6667,195.167 24.8333,191.333 23,185.5C 22.3333,128.167 22.3333,70.8333 23,13.5C 25.4234,8.06067 29.2568,4.06067 34.5,1.5 Z M 161.5,16.5 C 162.495,71.0951 162.829,125.762 162.5,180.5C 142.178,181.833 121.511,182.5 100.5,182.5C 79.595,182.497 58.7616,182.164 38,181.5C 37.3333,126.833 37.3333,72.1667 38,17.5C 79.0943,16.5033 120.261,16.17 161.5,16.5 Z"/></g>
<g><path style="opacity:1" fill="#f8f8f8" d="M 60.5,51.5 C 61.552,51.3505 62.552,51.5172 63.5,52C 75.6667,63.5 87.8333,75 100,86.5C 112.167,75 124.333,63.5 136.5,52C 137.833,51.3333 139.167,51.3333 140.5,52C 143.333,54.8333 146.167,57.6667 149,60.5C 149.667,62.1667 149.667,63.8333 149,65.5C 137.015,76.6511 125.182,87.9844 113.5,99.5C 125.182,111.016 137.015,122.349 149,133.5C 149.667,135.167 149.667,136.833 149,138.5C 146.167,141.333 143.333,144.167 140.5,147C 139.167,147.667 137.833,147.667 136.5,147C 124.333,135.5 112.167,124 100,112.5C 87.8333,124 75.6667,135.5 63.5,147C 62.1667,147.667 60.8333,147.667 59.5,147C 56.6667,144.167 53.8333,141.333 51,138.5C 50.3333,136.833 50.3333,135.167 51,133.5C 63.0114,122.321 74.8447,110.988 86.5,99.5C 74.8447,88.0121 63.0114,76.6787 51,65.5C 50.3333,63.8333 50.3333,62.1667 51,60.5C 54.0623,57.2678 57.229,54.2678 60.5,51.5 Z"/></g>
<g><path style="opacity:1" fill="#d6d6d6" d="M 161.5,16.5 C 162.833,43.4918 163.5,70.8251 163.5,98.5C 163.5,126.002 163.167,153.335 162.5,180.5C 162.829,125.762 162.495,71.0951 161.5,16.5 Z"/></g>
</svg>
