<?xml version="1.0" encoding="UTF-8"?>
<!DOCTYPE svg PUBLIC "-//W3C//DTD SVG 1.1//EN" "http://www.w3.org/Graphics/SVG/1.1/DTD/svg11.dtd">
<svg xmlns="http://www.w3.org/2000/svg" version="1.1" width="200px" height="200px" style="shape-rendering:geometricPrecision; text-rendering:geometricPrecision; image-rendering:optimizeQuality; fill-rule:evenodd; clip-rule:evenodd" xmlns:xlink="http://www.w3.org/1999/xlink">
<g><path style="opacity:1" fill="#f7f7f7" d="M 110.5,199.5 C 103.5,199.5 96.5,199.5 89.5,199.5C 80.3848,186.545 71.0515,173.712 61.5,161C 45.8946,158.294 30.2279,155.961 14.5,154C 6.04094,151.585 2.87427,146.085 5,137.5C 12.4536,123.423 20.287,109.59 28.5,96C 23.0048,81.5168 17.5048,67.0168 12,52.5C 10.7789,45.1088 13.6122,39.9422 20.5,37C 35.8333,36.6667 51.1667,36.3333 66.5,36C 75.1195,24.3787 84.1195,13.0454 93.5,2C 98.9436,-0.283952 104.11,0.216048 109,3.5C 117.045,14.4229 125.212,25.2563 133.5,36C 148.833,36.3333 164.167,36.6667 179.5,37C 186.833,39.6444 189.666,44.8111 188,52.5C 182.733,66.8007 177.567,81.1341 172.5,95.5C 179.142,108.784 186.309,121.784 194,134.5C 197.089,141.843 195.589,148.01 189.5,153C 172.487,155.585 155.487,158.252 138.5,161C 128.949,173.712 119.615,186.545 110.5,199.5 Z M 97.5,8.5 C 100.652,7.95855 103.152,8.95855 105,11.5C 113.136,22.9363 121.636,34.1029 130.5,45C 146.844,45.1671 163.177,45.6671 179.5,46.5C 180.485,48.0983 180.651,49.765 180,51.5C 174.4,66.1335 168.9,80.8001 163.5,95.5C 171.523,110.881 179.523,126.214 187.5,141.5C 187.548,144.766 185.882,146.266 182.5,146C 166.475,148.17 150.475,150.503 134.5,153C 124.633,165.902 115.133,179.068 106,192.5C 102.645,197.31 98.9786,197.644 95,193.5C 85.5534,179.72 75.7201,166.22 65.5,153C 48.1642,150.333 30.8309,147.666 13.5,145C 12.2922,140.853 13.1256,137.02 16,133.5C 23.1667,121.167 30.3333,108.833 37.5,96.5C 30.5451,80.462 24.7118,64.1287 20,47.5C 20.5,47 21,46.5 21.5,46C 37.5,45.6667 53.5,45.3333 69.5,45C 79.049,32.9571 88.3823,20.7905 97.5,8.5 Z M 95.5,45.5 C 131.637,46.3701 151.303,64.7034 154.5,100.5C 153.766,124.063 142.766,140.896 121.5,151C 95.6946,159.924 73.8613,154.091 56,133.5C 42.001,111.508 42.001,89.5083 56,67.5C 66.2855,54.7786 79.4522,47.4453 95.5,45.5 Z M 92.5,61.5 C 115.34,59.4858 130.506,69.1525 138,90.5C 141.528,107.923 136.361,122.09 122.5,133C 101.792,144.124 83.6253,140.957 68,123.5C 58,108.167 58,92.8333 68,77.5C 74.523,69.4462 82.6897,64.1128 92.5,61.5 Z"/></g>
<g><path style="opacity:1" fill="#f8f8f8" d="M 25.5,51.5 C 40.5981,50.8484 55.5981,50.1817 70.5,49.5C 72.3904,49.7035 73.8904,49.0368 75,47.5C 83.3333,36.5 91.6667,25.5 100,14.5C 108.833,26 117.667,37.5 126.5,49C 142.497,49.4999 158.497,49.6666 174.5,49.5C 169.435,65.3604 163.768,81.027 157.5,96.5C 165.8,111.438 173.8,126.438 181.5,141.5C 164.368,143.266 147.368,145.766 130.5,149C 120.694,162.973 110.694,176.806 100.5,190.5C 89.6206,177.114 79.2873,163.281 69.5,149C 52.6403,145.71 35.6403,143.21 18.5,141.5C 26.0811,126.509 34.0811,111.675 42.5,97C 37.1198,81.6887 31.4531,66.522 25.5,51.5 Z M 95.5,45.5 C 79.4522,47.4453 66.2855,54.7786 56,67.5C 42.001,89.5083 42.001,111.508 56,133.5C 73.8613,154.091 95.6946,159.924 121.5,151C 142.766,140.896 153.766,124.063 154.5,100.5C 151.303,64.7034 131.637,46.3701 95.5,45.5 Z M 92.5,61.5 C 82.6897,64.1128 74.523,69.4462 68,77.5C 58,92.8333 58,108.167 68,123.5C 83.6253,140.957 101.792,144.124 122.5,133C 136.361,122.09 141.528,107.923 138,90.5C 130.506,69.1525 115.34,59.4858 92.5,61.5 Z"/></g>
<g><path style="opacity:1" fill="#e0e1e1" d="M 70.5,49.5 C 55.5981,50.1817 40.5981,50.8484 25.5,51.5C 40.1294,49.5163 55.1294,48.8497 70.5,49.5 Z"/></g>
<g><path style="opacity:1" fill="#f8f8f8" d="M 96.5,52.5 C 127.111,54.1126 144.111,70.1126 147.5,100.5C 144.598,129.236 128.764,145.236 100,148.5C 71.0041,145.171 55.1708,129.005 52.5,100C 55.2977,73.0397 69.9643,57.2064 96.5,52.5 Z M 92.5,61.5 C 82.6897,64.1128 74.523,69.4462 68,77.5C 58,92.8333 58,108.167 68,123.5C 83.6253,140.957 101.792,144.124 122.5,133C 136.361,122.09 141.528,107.923 138,90.5C 130.506,69.1525 115.34,59.4858 92.5,61.5 Z"/></g>
</svg>
