<?xml version="1.0" encoding="UTF-8"?>
<!DOCTYPE svg PUBLIC "-//W3C//DTD SVG 1.1//EN" "http://www.w3.org/Graphics/SVG/1.1/DTD/svg11.dtd">
<svg xmlns="http://www.w3.org/2000/svg" version="1.1" width="200px" height="200px" style="shape-rendering:geometricPrecision; text-rendering:geometricPrecision; image-rendering:optimizeQuality; fill-rule:evenodd; clip-rule:evenodd" xmlns:xlink="http://www.w3.org/1999/xlink">
<g><path style="opacity:1" fill="#f3f3f3" d="M 62.5,52.5 C 64.134,53.1611 65.9674,53.4944 68,53.5C 70.2953,53.4535 72.1286,52.7868 73.5,51.5C 78.3208,42.527 83.1542,33.527 88,24.5C 87.5612,21.5703 87.0612,18.5703 86.5,15.5C 87.82,5.50084 93.4867,1.33417 103.5,3C 112.478,7.47335 114.811,14.3067 110.5,23.5C 115.453,33.2427 120.787,42.7427 126.5,52C 138.5,52.6667 150.5,52.6667 162.5,52C 167.553,45.0705 173.886,43.7372 181.5,48C 186.685,52.9472 187.851,58.7806 185,65.5C 181.251,69.7079 176.584,72.0413 171,72.5C 165.368,81.6 159.868,90.7667 154.5,100C 159.868,109.233 165.368,118.4 171,127.5C 184.963,129.761 189.296,137.428 184,150.5C 176.392,157.744 169.225,157.077 162.5,148.5C 150.514,147.334 138.514,147.167 126.5,148C 120.953,156.924 115.787,166.09 111,175.5C 111.587,178.566 112.087,181.732 112.5,185C 110.267,196.454 103.6,200.12 92.5,196C 88.3926,193.45 86.3926,189.783 86.5,185C 86.9128,181.732 87.4128,178.566 88,175.5C 83.2132,166.09 78.0466,156.924 72.5,148C 60.4861,147.167 48.4861,147.334 36.5,148.5C 27.8835,158.14 20.0502,157.474 13,146.5C 11.1663,139.345 13.333,133.845 19.5,130C 22.9221,129.326 26.0888,128.16 29,126.5C 34.0473,117.568 39.214,108.735 44.5,100C 39.1324,90.7667 33.6324,81.6 28,72.5C 14.3665,70.5588 10.0332,63.2255 15,50.5C 22.5453,43.5911 29.712,43.9245 36.5,51.5C 45.1411,52.498 53.8078,52.8314 62.5,52.5 Z M 98.5,28.5 C 99.3764,28.3691 100.043,28.7025 100.5,29.5C 106.788,41.2455 113.455,52.7455 120.5,64C 134.5,64.3333 148.5,64.6667 162.5,65C 154.99,76.3514 147.99,88.0181 141.5,100C 147.99,111.982 154.99,123.649 162.5,135C 148.073,135.033 133.74,135.7 119.5,137C 112.634,148.371 105.967,159.871 99.5,171.5C 92.7071,160.082 86.0404,148.582 79.5,137C 65.26,135.7 50.9266,135.033 36.5,135C 44.0097,123.649 51.0097,111.982 57.5,100C 51.0097,88.0181 44.0097,76.3514 36.5,65C 50.5,64.6667 64.5,64.3333 78.5,64C 81.0373,61.0937 83.204,57.927 85,54.5C 89.7809,45.937 94.2809,37.2703 98.5,28.5 Z"/></g>
<g><path style="opacity:1" fill="#b2b2b2" d="M 73.5,51.5 C 72.1286,52.7868 70.2953,53.4535 68,53.5C 65.9674,53.4944 64.134,53.1611 62.5,52.5C 66.2693,52.756 69.9359,52.4227 73.5,51.5 Z"/></g>
</svg>
