<?xml version="1.0" encoding="UTF-8"?>
<!DOCTYPE svg PUBLIC "-//W3C//DTD SVG 1.1//EN" "http://www.w3.org/Graphics/SVG/1.1/DTD/svg11.dtd">
<svg xmlns="http://www.w3.org/2000/svg" version="1.1" width="200px" height="200px" style="shape-rendering:geometricPrecision; text-rendering:geometricPrecision; image-rendering:optimizeQuality; fill-rule:evenodd; clip-rule:evenodd" xmlns:xlink="http://www.w3.org/1999/xlink">
<g><path style="opacity:1" fill="#f7f7f7" d="M 138.5,68.5 C 137.596,69.209 137.263,70.209 137.5,71.5C 153.521,71.2624 169.521,71.5958 185.5,72.5C 191.754,74.2528 195.921,78.2528 198,84.5C 198.667,89.5 198.667,94.5 198,99.5C 192.667,124.833 187.333,150.167 182,175.5C 180.3,181.4 176.8,185.9 171.5,189C 143.895,190.641 116.229,190.974 88.5,190C 79.2419,187.025 70.0752,183.859 61,180.5C 60.6667,182.833 60.3333,185.167 60,187.5C 59.5,188.667 58.6667,189.5 57.5,190C 40.5,190.667 23.5,190.667 6.5,190C 5.33333,189.5 4.5,188.667 4,187.5C 3.33333,153.5 3.33333,119.5 4,85.5C 4.83333,84.6667 5.66667,83.8333 6.5,83C 23.5,82.3333 40.5,82.3333 57.5,83C 59.7385,84.9777 61.0718,87.4777 61.5,90.5C 61.8333,90.3333 62.1667,90.1667 62.5,90C 73.1237,74.5865 83.6237,59.0865 94,43.5C 95.7953,34.1899 97.462,24.8566 99,15.5C 100.263,9.11482 104.096,5.28148 110.5,4C 124.375,1.8642 133.875,7.3642 139,20.5C 143.586,36.5424 143.419,52.5424 138.5,68.5 Z M 113.5,15.5 C 117.131,15.1604 120.464,15.9937 123.5,18C 127.91,24.7923 130.243,32.2923 130.5,40.5C 129.081,52.7607 127.081,64.9274 124.5,77C 124.99,79.5028 126.323,81.5028 128.5,83C 146.5,83.3333 164.5,83.6667 182.5,84C 186.277,86.9109 187.444,90.7442 186,95.5C 180.775,121.185 175.441,146.852 170,172.5C 169.315,175.057 167.815,176.891 165.5,178C 140.833,178.667 116.167,178.667 91.5,178C 81.2931,174.319 70.9597,171.152 60.5,168.5C 60.167,147.156 60.5003,125.823 61.5,104.5C 65.465,102.365 69.2984,100.032 73,97.5C 83.6072,80.5623 94.6072,63.8956 106,47.5C 107.538,38.1449 109.204,28.8115 111,19.5C 111.48,17.867 112.313,16.5336 113.5,15.5 Z M 48.5,102.5 C 48.5,127.833 48.5,153.167 48.5,178.5C 37.5,178.5 26.5,178.5 15.5,178.5C 15.5,150.5 15.5,122.5 15.5,94.5C 26.5,94.5 37.5,94.5 48.5,94.5C 48.5,97.1667 48.5,99.8333 48.5,102.5 Z"/></g>
<g><path style="opacity:1" fill="#e8e7e7" d="M 138.5,68.5 C 152.131,70.3195 166.131,71.1529 180.5,71C 182.382,71.1981 184.048,71.6981 185.5,72.5C 169.521,71.5958 153.521,71.2624 137.5,71.5C 137.263,70.209 137.596,69.209 138.5,68.5 Z"/></g>
<g><path style="opacity:1" fill="#e9eae8" d="M 48.5,102.5 C 49.4978,127.995 49.8311,153.661 49.5,179.5C 37.9877,179.828 26.6544,179.495 15.5,178.5C 26.5,178.5 37.5,178.5 48.5,178.5C 48.5,153.167 48.5,127.833 48.5,102.5 Z"/></g>
</svg>
