<?xml version="1.0" standalone="no"?>
<!DOCTYPE svg PUBLIC "-//W3C//DTD SVG 20010904//EN"
 "http://www.w3.org/TR/2001/REC-SVG-20010904/DTD/svg10.dtd">
<svg version="1.0" xmlns="http://www.w3.org/2000/svg"
 width="100.000000pt" height="100.000000pt" viewBox="0 0 100.000000 100.000000"
 preserveAspectRatio="xMidYMid meet">
<metadata>
Created by potrace 1.16, written by Peter Selinger 2001-2019
</metadata>
<g transform="translate(0.000000,100.000000) scale(0.100000,-0.100000)"
fill="#000000" stroke="none">
<path d="M0 500 l0 -500 500 0 500 0 0 500 0 500 -500 0 -500 0 0 -500z m634
396 c41 -10 86 -35 86 -47 0 -6 4 -8 9 -5 22 14 159 -142 145 -165 -3 -5 -1
-9 4 -9 17 0 34 -85 34 -170 0 -85 -17 -170 -34 -170 -5 0 -7 -4 -4 -9 6 -10
-33 -71 -73 -115 -33 -36 -111 -87 -122 -80 -5 3 -9 1 -9 -4 0 -17 -77 -32
-164 -32 -90 0 -176 15 -176 32 0 5 -4 7 -9 4 -14 -9 -94 48 -135 95 -41 47
-71 99 -59 99 5 0 3 4 -4 8 -19 12 -27 61 -27 172 0 114 3 130 34 194 22 47
89 130 98 122 3 -3 12 3 19 14 8 11 19 18 24 15 5 -4 9 -2 9 4 0 13 48 38 85
45 15 3 30 8 33 11 8 8 198 1 236 -9z"/>
<path d="M425 817 c-22 -8 -54 -21 -71 -30 -17 -9 -34 -14 -38 -12 -3 3 -4 3
-2 0 6 -9 -78 -91 -89 -86 -5 2 -7 1 -3 -4 4 -4 -4 -29 -17 -55 -51 -101 -38
-220 34 -316 69 -92 194 -152 292 -141 105 13 218 98 271 205 35 71 32 178 -5
250 -79 150 -240 232 -372 189z m269 -263 c9 -3 13 -10 10 -15 -3 -5 0 -9 5
-9 20 0 13 -68 -8 -80 -26 -13 -376 -13 -402 0 -24 14 -25 63 -1 89 15 18 33
19 199 20 100 1 188 -2 197 -5z"/>
</g>
</svg>
